<!-- TwoCoasts brand asset. Generated by branding/tools/build.mjs; edit the generator, not this file. -->
<svg xmlns="http://www.w3.org/2000/svg" viewBox="0 0 512 512" width="512" height="512" role="img" aria-labelledby="t">
  <title id="t">TwoCoasts mark, one colour (navy)</title>
  <defs>
    <clipPath id="mark-mono-navy-badge"><circle cx="256" cy="256" r="230"/></clipPath>
    <mask id="mark-mono-navy-cut">
      <rect width="512" height="512" fill="#fff"/>
      <rect x="318" y="118" width="36" height="182" fill="#000"/>
      <path d="M0 348 C70 348 118 366 176 366 C250 366 268 300 318 300 C376 300 424 346 512 336 V512 H0 Z" fill="none" stroke="#000" stroke-width="20"/>
      <path d="M0 424 C80 424 118 392 198 394 C286 396 328 444 404 438 C462 434 490 412 512 408 V512 H0 Z" fill="none" stroke="#000" stroke-width="20"/>
      <path d="M311 118 H325 V302 H311 Z" fill="#000" stroke="#000" stroke-width="18" stroke-linejoin="round"/>
      <path d="M324 118 L390 140 L324 162 Z" fill="#000" stroke="#000" stroke-width="18" stroke-linejoin="round"/>
    </mask>
  </defs>
  <circle cx="256" cy="256" r="241" fill="none" stroke="#0B2545" stroke-width="14"/>
  <g clip-path="url(#mark-mono-navy-badge)" mask="url(#mark-mono-navy-cut)" fill="#0B2545">
    <circle cx="236" cy="214" r="118"/>
    <path d="M0 348 C70 348 118 366 176 366 C250 366 268 300 318 300 C376 300 424 346 512 336 V512 H0 Z"/>
    <path d="M0 424 C80 424 118 392 198 394 C286 396 328 444 404 438 C462 434 490 412 512 408 V512 H0 Z"/>
  </g>
  <path d="M311 118 H325 V302 H311 Z" fill="#0B2545"/>
  <path d="M324 118 L390 140 L324 162 Z" fill="#0B2545"/>
</svg>
